<svg xmlns="http://www.w3.org/2000/svg" viewBox="0 0 24 24" fill="#27A292">
  <path fill-rule="evenodd" d="M12.516 2.17a.75.75 0 00-1.032 0 11.209 11.209 0 01-7.877 3.08.75.75 0 00-.722.515A12.73 12.73 0 002.25 12c0 2.892.652 5.613 1.838 8.04.225.442.668.744 1.145.744h13.532c.477 0 .92-.302 1.145-.744A12.73 12.73 0 0021.75 12c0-2.892-.652-5.613-1.838-8.04a.75.75 0 00-.722-.515 11.21 11.21 0 01-7.877-3.08zM12 6.33A4.655 4.655 0 007.41 9.25a.75.75 0 01-1.332.664 6.155 6.155 0 018.844 0 .75.75 0 01-1.332-.664A4.655 4.655 0 0012 6.33zM13.43 14.57a.75.75 0 00-1.06-.027l-2.003 1.88-1.12-1.047a.75.75 0 00-1.022 1.099l1.5 1.4a.75.75 0 001.042.018l2.5-2.25a.75.75 0 00-.037-1.073z" clip-rule="evenodd" />
</svg>
